<svg width="90" height="90" viewBox="0 0 90 90" fill="none" xmlns="http://www.w3.org/2000/svg">
<g clip-path="url(#clip0_34_584)">
<mask id="mask0_34_584" style="mask-type:luminance" maskUnits="userSpaceOnUse" x="30" y="12" width="15" height="15">
<path d="M30.96 12.1987H44.88V26.16H30.96V12.1987Z" fill="white"/>
</mask>
<g mask="url(#mask0_34_584)">
<path d="M37.8365 25.9406C41.6315 25.9406 44.7075 22.8637 44.7075 19.0697C44.7075 15.2747 41.6315 12.1987 37.8365 12.1987C34.0425 12.1987 30.9656 15.2747 30.9656 19.0697C30.9656 22.8637 34.0425 25.9406 37.8365 25.9406Z" fill="#B43A20"/>
</g>
<path d="M32.6166 34.2984C31.3809 26.3906 42.7847 23.9897 44.6213 32.0747L47.7281 47.564L59.3194 47.5884C62.7038 47.5884 64.4634 50.2959 64.4634 52.8V73.859C64.4634 78.9731 57.1809 78.9497 57.1809 73.7681V57.3787H42.3769C38.925 57.3787 36.7584 55.0097 36.2175 52.3022L32.6166 34.2984Z" fill="#B43A20"/>
<path d="M51.7527 58.7606C55.5993 58.7606 55.5805 64.4494 51.8062 64.4494H41.1749C36.0065 64.4494 30.8512 60.5662 29.503 54.5634L26.1908 38.4637C25.5196 34.8084 30.7808 33.5916 31.558 37.3341L34.6987 52.7362C35.578 56.6616 38.489 58.7606 42.0083 58.7606H51.7527Z" fill="#B43A20"/>
</g>
<defs>
<clipPath id="clip0_34_584">
<rect width="90" height="90" fill="white"/>
</clipPath>
</defs>
</svg>
